<svg width="64" height="64" viewBox="0 0 64 64" fill="none" xmlns="http://www.w3.org/2000/svg">
  <defs>
    <linearGradient id="brain-gradient" x1="0%" y1="0%" x2="100%" y2="100%">
      <stop offset="0%" style="stop-color:#3b82f6;stop-opacity:1" />
      <stop offset="100%" style="stop-color:#6366f1;stop-opacity:1" />
    </linearGradient>
  </defs>
  <circle cx="32" cy="32" r="30" fill="url(#brain-gradient)" opacity="0.1"/>
  <path d="M32 8C18.7 8 8 18.7 8 32s10.7 24 24 24c6.6 0 12.5-2.5 16.9-6.5" stroke="url(#brain-gradient)" stroke-width="2" fill="none" stroke-linecap="round"/>
  <circle cx="20" cy="28" r="4" fill="url(#brain-gradient)"/>
  <circle cx="44" cy="28" r="4" fill="url(#brain-gradient)"/>
  <path d="M24 44c0 3.3 2.7 6 6 6s6-2.7 6-6c0-2.2-1.2-4.1-3-5.2" stroke="url(#brain-gradient)" stroke-width="2" fill="none" stroke-linecap="round"/>
  <path d="M40 44c0 3.3 2.7 6 6 6s6-2.7 6-6c0-2.2-1.2-4.1-3-5.2" stroke="url(#brain-gradient)" stroke-width="2" fill="none" stroke-linecap="round"/>
  <circle cx="32" cy="38" r="3" fill="url(#brain-gradient)"/>
  <path d="M32 18v6M14 26l4-4M50 26l-4-4" stroke="url(#brain-gradient)" stroke-width="2" stroke-linecap="round"/>
  <circle cx="12" cy="42" r="2" fill="url(#brain-gradient)"/>
  <circle cx="52" cy="42" r="2" fill="url(#brain-gradient)"/>
  <path d="M16 48l2 3M48 48l-2 3" stroke="url(#brain-gradient)" stroke-width="2" stroke-linecap="round"/>
</svg>
